<svg width="221" height="222" viewBox="0 0 221 222" fill="none" xmlns="http://www.w3.org/2000/svg">
<rect x="0.5" width="220" height="222" rx="110" fill="black"/>
<path d="M39.2573 73.0445C36.0573 73.9405 33.9133 75.1885 32.8253 76.7885C31.6733 78.3245 31.0973 80.5965 31.0973 83.6045V99.9245C31.0973 103.701 30.2973 106.645 28.6973 108.757C27.0333 110.869 24.4733 112.405 21.0173 113.365C24.4733 114.325 27.0333 115.861 28.6973 117.973C30.2973 120.085 31.0973 123.029 31.0973 126.805V143.125C31.0973 146.133 31.6733 148.405 32.8253 149.941C33.9133 151.477 36.0573 152.725 39.2573 153.685V156.565C33.6253 155.093 29.5933 152.949 27.1613 150.133C24.6653 147.317 23.4173 143.701 23.4173 139.285V125.845C23.4173 122.901 22.6813 120.437 21.2093 118.453C19.6733 116.533 17.2093 115.317 13.8173 114.805V111.925C17.2093 111.413 19.6733 110.165 21.2093 108.181C22.6813 106.261 23.4173 103.829 23.4173 100.885V87.4445C23.4173 82.9645 24.6653 79.3165 27.1613 76.5005C29.5933 73.6205 33.6253 71.5085 39.2573 70.1645V73.0445Z" fill="white"/>
<path d="M181.637 73.0445C184.837 73.9405 186.981 75.1885 188.069 76.7885C189.221 78.3245 189.797 80.5965 189.797 83.6045V99.9245C189.797 103.701 190.597 106.645 192.197 108.757C193.861 110.869 196.421 112.405 199.877 113.365C196.421 114.325 193.861 115.861 192.197 117.973C190.597 120.085 189.797 123.029 189.797 126.805V143.125C189.797 146.133 189.221 148.405 188.069 149.941C186.981 151.477 184.837 152.725 181.637 153.685V156.565C187.269 155.093 191.301 152.949 193.733 150.133C196.229 147.317 197.477 143.701 197.477 139.285V125.845C197.477 122.901 198.213 120.437 199.685 118.453C201.221 116.533 203.685 115.317 207.077 114.805V111.925C203.685 111.413 201.221 110.165 199.685 108.181C198.213 106.261 197.477 103.829 197.477 100.885V87.4445C197.477 82.9645 196.229 79.3165 193.733 76.5005C191.301 73.6205 187.269 71.5085 181.637 70.1645V73.0445Z" fill="white"/>
<path d="M53.9521 90.0343C52.3521 86.3223 50.8481 83.7943 49.4401 82.4503C48.0321 81.0423 46.0161 80.2103 43.3921 79.9543V78.0343C43.7121 78.0343 44.1921 78.0023 44.8321 77.9383C45.4081 77.8743 46.0161 77.8423 46.6561 77.8423C49.8561 77.8423 52.9281 78.6743 55.8721 80.3383C58.8161 81.9383 61.3121 85.1703 63.3601 90.0343L79.7761 128.722L85.4401 115.57C88.1281 109.362 93.2801 97.1063 100.896 78.8023H105.504L77.9521 143.122H76.2241L53.9521 90.0343ZM177.968 146.482C173.36 146.482 169.776 145.778 167.216 144.37C164.656 142.962 162.832 140.786 161.744 137.842C160.72 134.834 160.208 130.834 160.208 125.842V88.8823L136.208 142.162H134.288L109.328 87.9223V142.162H105.488V78.8023H114.608L137.648 128.722L160.208 78.8023H168.848V125.842C168.848 131.794 169.584 136.402 171.056 139.666C172.592 142.93 174.896 144.562 177.968 144.562V146.482Z" fill="white"/>
</svg>
